<?xml version="1.0" standalone="no"?>
<!DOCTYPE svg PUBLIC "-//W3C//DTD SVG 20010904//EN"
 "http://www.w3.org/TR/2001/REC-SVG-20010904/DTD/svg10.dtd">
<svg version="1.0" xmlns="http://www.w3.org/2000/svg"
 width="260.000000pt" height="260.000000pt" viewBox="0 0 260.000000 260.000000"
 preserveAspectRatio="xMidYMid meet">
<metadata>
Created by potrace 1.14, written by Peter Selinger 2001-2017
</metadata>
<g transform="translate(0.000000,260.000000) scale(0.100000,-0.100000)"
fill="#000000" stroke="none">
<path d="M1130 2559 c-25 -4 -63 -10 -85 -14 -76 -13 -246 -74 -334 -120 -119
-63 -208 -131 -316 -240 -175 -176 -289 -390 -341 -640 -19 -94 -26 -320 -12
-420 62 -458 389 -861 828 -1020 87 -31 83 -30 215 -55 125 -24 350 -22 465 5
184 41 347 113 490 213 148 105 315 301 399 470 36 72 96 247 106 307 3 22 9
58 13 80 9 51 8 308 -1 360 -61 349 -234 635 -506 838 -127 95 -328 187 -471
216 -30 6 -68 13 -85 17 -46 10 -314 12 -365 3z"/>
</g>
</svg>
